<?xml version="1.0" encoding="utf-8"?>
<!-- Generator: Adobe Illustrator 16.0.0, SVG Export Plug-In . SVG Version: 6.00 Build 0)  -->
<!DOCTYPE svg PUBLIC "-//W3C//DTD SVG 1.1//EN" "http://www.w3.org/Graphics/SVG/1.1/DTD/svg11.dtd">
<svg version="1.1" id="Layer_1" xmlns="http://www.w3.org/2000/svg" xmlns:xlink="http://www.w3.org/1999/xlink" x="0px" y="0px"
	 width="100px" height="100px" viewBox="0 0 100 100" enable-background="new 0 0 100 100" xml:space="preserve">
<g id="Layer_2">
	<circle fill="#F0E607" cx="50" cy="50" r="50"/>
	<path fill="#545322" d="M43,60.832l24.833-25.167L65,23.999l-29.66-4.99L0.186,54.163C2.303,79.827,23.789,100,50,100
		c2.537,0,5.029-0.191,7.465-0.557L77.908,79L43,67.999V60.832z"/>
	<g>
		<path fill="#FFFFFF" d="M24.54,79c-0.36-7.38,2.52-12.779,7.56-17.999c10.62-11.07,27.269-15.39,27.269-25.919
			c0-4.05-3.87-6.39-7.649-6.39c-7.2,0-9.27,6.03-9.18,12.15H25.71c0.27-18.629,10.439-26.189,26.909-26.189
			c13.14,0,25.469,5.76,25.469,20.519c0,11.16-8.549,15.749-16.829,20.879c-4.59,2.881-9.45,5.311-12.779,7.65h29.429V79H24.54z"/>
	</g>
</g>
</svg>
