<svg xmlns="http://www.w3.org/2000/svg" width="100" height="100" viewBox="0 0 100 100"><circle fill="#B94B9C" cx="50" cy="50" r="50"/><path fill="#401A37" d="M34.493 15.22L.008 49.704c0 .1-.008.196-.008.295 0 15.03 6.642 28.5 17.14 37.667l7.96 5.685c6.526 3.758 13.978 6.088 21.933 6.555L74.78 72.16l-1.61-13.49-12.14-14.01L75.17 30.518l-40.68-15.3z"/><path fill="#FFF" d="M34.493 15.22h40.68v15.298h-27.54l-2.068 9.54c3.96-2.88 8.368-3.42 13.14-3.42 12.147 0 21.6 7.38 21.6 20.07 0 17.548-13.95 23.308-28.44 23.308-13.86 0-22.858-6.21-26.458-17.908l18.81-1.89c0 .18.18.45.18.63 1.08 3.33 4.68 5.13 8.1 5.13 5.49 0 9.09-3.69 9.09-8.37 0-5.22-2.52-9.18-8.188-9.18-2.79 0-6.12.72-7.562 3.51l-17.64-.63 6.295-36.09z"/></svg>