<?xml version="1.0" encoding="utf-8"?>
<!-- Generator: Adobe Illustrator 16.0.0, SVG Export Plug-In . SVG Version: 6.00 Build 0)  -->
<!DOCTYPE svg PUBLIC "-//W3C//DTD SVG 1.1//EN" "http://www.w3.org/Graphics/SVG/1.1/DTD/svg11.dtd">
<svg version="1.1" id="Layer_1" xmlns="http://www.w3.org/2000/svg" xmlns:xlink="http://www.w3.org/1999/xlink" x="0px" y="0px"
	 width="100px" height="100px" viewBox="0 0 100 100" enable-background="new 0 0 100 100" xml:space="preserve">
<g id="Layer_6">
	<circle fill="#29BDEF" cx="50" cy="50" r="50"/>
	<path fill="#0C4353" d="M63.333,22.167L32.254,23.7L0.324,55.63c2.722,24.28,22.824,43.296,47.58,44.318L74.17,73.682
		l-3.503-18.849l-5.742-9.799l14.144-14.142L63.333,22.167z"/>
	<g>
		<path fill="#FFFFFF" d="M61.608,31.972c-0.99-3.51-3.87-5.04-7.561-5.04c-6.93,0-9.81,6.3-9.72,14.58
			c5.04-3.51,8.818-4.59,14.85-4.59c14.759,0,21.419,11.429,21.419,20.52c0,15.479-11.068,22.408-25.379,22.408
			c-18.449,0-29.789-9.988-29.789-33.027c0-19.529,10.08-32.668,27.72-32.668c11.88,0,23.22,3.87,25.919,16.739L61.608,31.972z
			 M45.139,58.251c0,4.59,3.96,8.188,8.46,8.188c5.49,0,8.28-3.42,8.28-8.818c0-5.04-3.24-8.46-7.92-8.46
			C47.569,49.341,45.139,53.301,45.139,58.251z"/>
	</g>
</g>
</svg>
