<?xml version="1.0" encoding="utf-8"?>
<!-- Generator: Adobe Illustrator 16.0.0, SVG Export Plug-In . SVG Version: 6.00 Build 0)  -->
<!DOCTYPE svg PUBLIC "-//W3C//DTD SVG 1.1//EN" "http://www.w3.org/Graphics/SVG/1.1/DTD/svg11.dtd">
<svg version="1.1" id="Layer_1" xmlns="http://www.w3.org/2000/svg" xmlns:xlink="http://www.w3.org/1999/xlink" x="0px" y="0px"
	 width="100px" height="100px" viewBox="0 0 100 100" enable-background="new 0 0 100 100" xml:space="preserve">
<path fill="#9F9E9E" d="M46,11.707V0.174C38.342,0.78,31.172,3.109,24.874,6.778l6.796,9.354C36.011,13.779,40.854,12.237,46,11.707
	z"/>
<path fill="#9F9E9E" d="M54,88.293v11.533c8.417-0.667,16.243-3.414,22.971-7.733l-6.769-9.316C65.4,85.742,59.899,87.685,54,88.293
	z"/>
<path fill="#9F9E9E" d="M29.799,82.777l-6.768,9.315c6.727,4.319,14.553,7.066,22.969,7.733V88.293
	C40.101,87.685,34.601,85.742,29.799,82.777z"/>
<path fill="#9F9E9E" d="M85.855,64.023c-2.07,5.292-5.275,10.011-9.32,13.861l6.806,9.366c5.948-5.326,10.61-12.055,13.471-19.668
	L85.855,64.023z"/>
<path fill="#9F9E9E" d="M98.201,36.711l-10.943,3.556C88.066,43.376,88.5,46.637,88.5,50c0,2.146-0.184,4.25-0.521,6.301
	l11.039,3.587C99.659,56.691,100,53.386,100,50C100,45.397,99.365,40.944,98.201,36.711z"/>
<path fill="#9F9E9E" d="M68.33,16.133l6.796-9.354C68.828,3.109,61.658,0.78,54,0.174v11.533
	C59.146,12.237,63.989,13.779,68.33,16.133z"/>
<path fill="#9F9E9E" d="M11.5,50c0-3.363,0.433-6.624,1.242-9.732L1.799,36.712C0.635,40.945,0,45.397,0,50
	c0,3.386,0.341,6.691,0.982,9.888l11.039-3.587C11.684,54.25,11.5,52.146,11.5,50z"/>
<path fill="#9F9E9E" d="M14.144,64.023l-10.956,3.56c2.861,7.613,7.523,14.342,13.471,19.669l6.806-9.367
	C19.419,74.034,16.214,69.315,14.144,64.023z"/>
<path fill="#9F9E9E" d="M84.432,32.773l11.029-3.583c-3.188-6.954-7.915-13.055-13.759-17.852l-6.776,9.327
	C78.854,24.005,82.1,28.118,84.432,32.773z"/>
<path fill="#9F9E9E" d="M25.074,20.665l-6.776-9.327c-5.844,4.797-10.57,10.898-13.758,17.852l11.029,3.583
	C17.9,28.119,21.146,24.005,25.074,20.665z"/>
<path fill="#9F9E9E" d="M81,50c0,17.124-13.876,31-31,31S19,67.124,19,50s13.876-31,31-31S81,32.876,81,50z"/>
</svg>
