<svg xmlns="http://www.w3.org/2000/svg" width="100" height="100" viewBox="0 0 100 100"><circle fill="#29BDEF" cx="50" cy="50" r="50"/><path fill="#0C4353" d="M63.333 22.167L32.253 23.7.324 55.63c2.723 24.28 22.825 43.296 47.58 44.318L74.17 73.682l-3.503-18.85-5.742-9.798L79.07 30.892l-15.737-8.725z"/><path fill="#FFF" d="M61.608 31.972c-.99-3.51-3.87-5.04-7.56-5.04-6.93 0-9.81 6.3-9.72 14.58 5.04-3.51 8.817-4.59 14.85-4.59 14.758 0 21.418 11.43 21.418 20.52 0 15.48-11.068 22.408-25.38 22.408-18.448 0-29.788-9.988-29.788-33.027 0-19.53 10.08-32.668 27.72-32.668 11.88 0 23.22 3.87 25.92 16.74l-17.46 1.077zm-16.47 26.28c0 4.59 3.96 8.187 8.46 8.187 5.49 0 8.28-3.42 8.28-8.82 0-5.04-3.24-8.46-7.92-8.46-6.39.18-8.82 4.14-8.82 9.09z"/></svg>