<svg xmlns="http://www.w3.org/2000/svg" width="100" height="100" viewBox="0 0 100 100"><circle fill="#F0E607" cx="50" cy="50" r="50"/><path fill="#545322" d="M43 60.832l24.833-25.167L65 24l-29.66-4.99L.186 54.162C2.303 79.827 23.79 100 50 100c2.537 0 5.03-.19 7.465-.557L77.908 79 43 68V60.83z"/><path fill="#FFF" d="M24.54 79c-.36-7.38 2.52-12.78 7.56-18 10.62-11.07 27.27-15.39 27.27-25.918 0-4.05-3.87-6.39-7.65-6.39-7.2 0-9.27 6.03-9.18 12.15H25.71c.27-18.63 10.44-26.19 26.91-26.19 13.14 0 25.468 5.76 25.468 20.52 0 11.16-8.55 15.75-16.83 20.88-4.59 2.88-9.45 5.31-12.778 7.65h29.43V79H24.54z"/></svg>