<?xml version="1.0" encoding="utf-8"?>
<!-- Generator: Adobe Illustrator 16.0.0, SVG Export Plug-In . SVG Version: 6.00 Build 0)  -->
<!DOCTYPE svg PUBLIC "-//W3C//DTD SVG 1.1//EN" "http://www.w3.org/Graphics/SVG/1.1/DTD/svg11.dtd">
<svg version="1.1" id="Layer_1" xmlns="http://www.w3.org/2000/svg" xmlns:xlink="http://www.w3.org/1999/xlink" x="0px" y="0px"
	 width="100px" height="100px" viewBox="0 0 100 100" enable-background="new 0 0 100 100" xml:space="preserve">
<g id="Layer_5">
	<circle fill="#B94B9C" cx="50" cy="50" r="50"/>
	<path fill="#401A37" d="M34.493,15.219L0.008,49.705C0.007,49.804,0,49.901,0,50c0,15.029,6.642,28.501,17.139,37.667l7.96,5.685
		c6.527,3.758,13.979,6.088,21.934,6.555l27.747-27.747l-1.611-13.491L61.029,44.66l14.143-14.142L34.493,15.219z"/>
	<g>
		<path fill="#FFFFFF" d="M34.493,15.219h40.679v15.299H47.633l-2.068,9.54c3.959-2.88,8.368-3.42,13.139-3.42
			c12.148,0,21.6,7.38,21.6,20.069c0,17.549-13.949,23.309-28.438,23.309c-13.86,0-22.859-6.209-26.459-17.908l18.809-1.891
			c0,0.18,0.182,0.45,0.182,0.631c1.078,3.329,4.68,5.129,8.1,5.129c5.489,0,9.089-3.688,9.089-8.369
			c0-5.221-2.52-9.179-8.188-9.179c-2.79,0-6.119,0.72-7.561,3.509l-17.64-0.631L34.493,15.219z"/>
	</g>
</g>
</svg>
