<?xml version="1.0" encoding="utf-8"?>
<!-- Generator: Adobe Illustrator 16.0.0, SVG Export Plug-In . SVG Version: 6.00 Build 0)  -->
<!DOCTYPE svg PUBLIC "-//W3C//DTD SVG 1.1//EN" "http://www.w3.org/Graphics/SVG/1.1/DTD/svg11.dtd">
<svg version="1.1" id="Layer_1" xmlns="http://www.w3.org/2000/svg" xmlns:xlink="http://www.w3.org/1999/xlink" x="0px" y="0px"
	 width="100px" height="100px" viewBox="0 0 100 100" enable-background="new 0 0 100 100" xml:space="preserve">
<g id="Layer_3">
	<circle fill="#E78725" cx="50" cy="50" r="50"/>
	<path fill="#442F1A" d="M65.5,20l-29.568-0.984L0.228,54.721C2.51,79.087,22.274,98.364,46.853,99.893L76.164,70.58L72.5,52.5
		l-5.75-14.625L65.5,20z"/>
	<g>
		<path fill="#FFFFFF" d="M45.789,54.451c-0.09,2.879,0.72,5.22,2.25,6.84c1.53,1.619,3.87,2.52,6.75,2.52
			c5.49,0,8.37-3.688,8.37-7.379c0-7.291-7.199-7.021-11.699-7.021V38.342c4.41,0.36,11.16-0.54,11.16-6.48
			c0-4.14-3.69-5.67-7.38-5.67c-4.41,0-7.65,2.25-8.189,6.75H30.13c0.63-14.58,12.419-20.789,25.649-20.789
			c15.028,0,24.389,6.93,24.389,17.729c0,5.76-2.25,9.99-7.38,12.51c5.76,2.25,9.09,7.02,9.09,13.229
			c0,14.76-11.07,22.229-28.079,22.229c-14.759,0-25.919-7.648-25.649-23.397L45.789,54.451L45.789,54.451z"/>
	</g>
</g>
</svg>
