<?xml version="1.0" encoding="utf-8"?>
<!-- Generator: Adobe Illustrator 16.0.0, SVG Export Plug-In . SVG Version: 6.00 Build 0)  -->
<!DOCTYPE svg PUBLIC "-//W3C//DTD SVG 1.1//EN" "http://www.w3.org/Graphics/SVG/1.1/DTD/svg11.dtd">
<svg version="1.1" id="Layer_1" xmlns="http://www.w3.org/2000/svg" xmlns:xlink="http://www.w3.org/1999/xlink" x="0px" y="0px"
	 width="100px" height="100px" viewBox="0 0 100 100" enable-background="new 0 0 100 100" xml:space="preserve">
<path fill="#9F9E9E" d="M50,0C22.386,0,0,22.386,0,50s22.386,50,50,50s50-22.386,50-50S77.614,0,50,0z M50,88.5
	c-21.271,0-38.5-17.23-38.5-38.5c0-21.271,17.229-38.5,38.5-38.5c21.27,0,38.5,17.229,38.5,38.5C88.5,71.27,71.27,88.5,50,88.5z"/>
<path fill="#9F9E9E" d="M81,50c0,17.128-13.872,31-31,31S19,67.128,19,50s13.872-31,31-31S81,32.872,81,50z"/>
</svg>
