<svg xmlns="http://www.w3.org/2000/svg" width="100" height="100" viewBox="0 0 100 100"><path fill="#9F9E9E" d="M46 11.707V.174C38.342.78 31.172 3.11 24.874 6.778l6.796 9.354c4.34-2.353 9.184-3.895 14.33-4.425zM54 88.293v11.533c8.417-.667 16.243-3.414 22.97-7.733l-6.768-9.316C65.4 85.742 59.9 87.685 54 88.293zM29.8 82.777l-6.77 9.315c6.728 4.32 14.554 7.066 22.97 7.733V88.293c-5.9-.608-11.4-2.55-16.2-5.516zM85.855 64.023c-2.07 5.292-5.275 10.01-9.32 13.86l6.806 9.367c5.95-5.326 10.61-12.055 13.472-19.668l-10.957-3.56zM98.2 36.71L87.26 40.268c.808 3.11 1.242 6.37 1.242 9.733 0 2.146-.184 4.25-.52 6.3l11.038 3.588c.64-3.197.982-6.502.982-9.888 0-4.603-.635-9.056-1.8-13.29zM68.33 16.133l6.796-9.354C68.828 3.11 61.658.78 54 .173v11.533c5.146.53 9.99 2.072 14.33 4.426zM11.5 50c0-3.363.433-6.624 1.242-9.732L1.8 36.712C.634 40.945 0 45.397 0 50c0 3.386.34 6.69.982 9.888l11.04-3.587c-.338-2.05-.522-4.154-.522-6.3zM14.144 64.023l-10.956 3.56c2.86 7.613 7.523 14.342 13.47 19.67l6.807-9.368c-4.046-3.85-7.25-8.57-9.32-13.862zM84.432 32.773l11.03-3.583c-3.19-6.954-7.916-13.055-13.76-17.852l-6.776 9.327c3.928 3.34 7.174 7.453 9.506 12.108zM25.074 20.665l-6.776-9.327C12.454 16.135 7.728 22.236 4.54 29.19l11.03 3.583c2.33-4.654 5.576-8.768 9.504-12.108zM81 50c0 17.124-13.876 31-31 31S19 67.124 19 50s13.876-31 31-31 31 13.876 31 31z"/></svg>