<svg xmlns="http://www.w3.org/2000/svg" width="100" height="100" viewBox="0 0 100 100"><circle fill="#E78725" cx="50" cy="50" r="50"/><path fill="#442F1A" d="M65.5 20l-29.568-.984L.228 54.72C2.51 79.088 22.274 98.365 46.853 99.894l29.31-29.313L72.5 52.5l-5.75-14.625L65.5 20z"/><path fill="#FFF" d="M45.79 54.45c-.09 2.88.72 5.22 2.25 6.84s3.87 2.52 6.75 2.52c5.49 0 8.37-3.687 8.37-7.378 0-7.29-7.2-7.02-11.7-7.02V38.34c4.41.36 11.16-.54 11.16-6.48 0-4.14-3.69-5.67-7.38-5.67-4.41 0-7.65 2.25-8.19 6.75H30.13c.63-14.58 12.42-20.79 25.65-20.79 15.027 0 24.388 6.93 24.388 17.73 0 5.76-2.25 9.99-7.38 12.51 5.76 2.25 9.09 7.02 9.09 13.23 0 14.76-11.07 22.228-28.08 22.228-14.758 0-25.918-7.648-25.648-23.397l17.64-.002z"/></svg>