<?xml version="1.0" encoding="utf-8"?>
<!-- Generator: Adobe Illustrator 16.0.0, SVG Export Plug-In . SVG Version: 6.00 Build 0)  -->
<!DOCTYPE svg PUBLIC "-//W3C//DTD SVG 1.1//EN" "http://www.w3.org/Graphics/SVG/1.1/DTD/svg11.dtd">
<svg version="1.1" xmlns="http://www.w3.org/2000/svg" xmlns:xlink="http://www.w3.org/1999/xlink" x="0px" y="0px" width="1100px"
	 height="200px" viewBox="0 0 1100 200" enable-background="new 0 0 1100 200" xml:space="preserve">
<g id="Layer_1">
	<circle fill="#6ABD45" cx="100" cy="100" r="50"/>
	<polygon fill="#253B1F" points="100.475,61.826 79.494,82.807 107.688,82.807 	"/>
	<g>
		<path fill="#253B1F" d="M50.522,107.188c3.089,21.448,19.789,38.485,41.065,42.093l23.107-23.107L103.75,88.5L81.306,76.405
			L50.522,107.188z"/>
		<path fill="#FFFFFF" d="M114.694,126.174H95.975V89.186H81.306v-12.78c9.899-0.18,17.099-3.6,19.169-14.579h14.22V126.174z"/>
	</g>
</g>
<g id="Layer_2">
	<circle fill="#F0E709" cx="250" cy="100" r="50"/>
	<path fill="#535222" d="M243,110.832l24.833-25.167L265,73.999l-29.66-4.99l-35.154,35.154C202.303,129.827,223.789,150,250,150
		c2.537,0,5.029-0.192,7.465-0.557L277.908,129L243,117.999V110.832z"/>
	<g>
		<path fill="#FFFFFF" d="M224.54,129c-0.36-7.38,2.52-12.779,7.56-17.999c10.62-11.07,27.269-15.39,27.269-25.919
			c0-4.05-3.87-6.39-7.649-6.39c-7.2,0-9.27,6.03-9.18,12.15H225.71c0.27-18.629,10.439-26.189,26.909-26.189
			c13.14,0,25.469,5.76,25.469,20.519c0,11.16-8.549,15.749-16.829,20.879c-4.59,2.88-9.45,5.311-12.779,7.65h29.429V129H224.54z"/>
	</g>
</g>
<g id="Layer_3">
	<circle fill="#E78624" cx="400" cy="100" r="50"/>
	<path fill="#442E18" d="M415.5,70l-29.568-0.984l-35.704,35.704c2.282,24.367,22.046,43.644,46.625,45.172l29.311-29.312
		L422.5,102.5l-5.75-14.625L415.5,70z"/>
	<g>
		<path fill="#FFFFFF" d="M395.789,104.451c-0.09,2.879,0.72,5.22,2.25,6.84c1.53,1.619,3.87,2.52,6.75,2.52
			c5.49,0,8.37-3.689,8.37-7.38c0-7.29-7.199-7.02-11.699-7.02V88.342c4.41,0.36,11.16-0.54,11.16-6.48c0-4.14-3.69-5.67-7.38-5.67
			c-4.41,0-7.65,2.25-8.189,6.75H380.13c0.63-14.58,12.419-20.789,25.649-20.789c15.029,0,24.389,6.93,24.389,17.729
			c0,5.76-2.25,9.99-7.38,12.51c5.76,2.25,9.09,7.02,9.09,13.229c0,14.76-11.07,22.229-28.079,22.229
			c-14.759,0-25.919-7.649-25.649-23.398H395.789z"/>
	</g>
</g>
<g id="Layer_4">
	<circle fill="#D92A27" cx="550" cy="100" r="50"/>
	<path fill="#401616" d="M501.724,113.022c5.384,20.005,22.862,35.039,44.115,36.792l25.147-25.147l-4.652-36.333L553.526,61.22
		L501.724,113.022z"/>
	<polygon fill="#401616" points="578.905,111.438 567.172,123.172 563,105.667 575.334,107.334 	"/>
	<g>
		<path fill="#FFFFFF" d="M523.918,96.408l29.608-35.188h17.46v36.269h7.919v13.949h-7.919v13.229h-17.819v-13.229h-29.249V96.408z
			 M538.047,97.488h15.12v-19.35L538.047,97.488z"/>
	</g>
</g>
<g id="Layer_5">
	<circle fill="#B94A9B" cx="700" cy="100" r="50"/>
	<path fill="#401936" d="M684.493,65.219l-34.485,34.486C650.007,99.804,650,99.901,650,100c0,15.03,6.642,28.501,17.139,37.667
		l7.96,5.685c6.527,3.757,13.978,6.087,21.933,6.554l27.747-27.747l-1.611-13.491L711.029,94.66l14.143-14.142L684.493,65.219z"/>
	<g>
		<path fill="#FFFFFF" d="M684.493,65.219h40.679v15.299h-27.539l-2.069,9.54c3.959-2.88,8.369-3.42,13.139-3.42
			c12.149,0,21.6,7.38,21.6,20.069c0,17.549-13.949,23.309-28.438,23.309c-13.86,0-22.859-6.209-26.459-17.909l18.809-1.89
			c0,0.18,0.181,0.45,0.181,0.63c1.079,3.33,4.68,5.13,8.1,5.13c5.489,0,9.089-3.689,9.089-8.369c0-5.221-2.52-9.18-8.189-9.18
			c-2.79,0-6.119,0.72-7.56,3.51l-17.64-0.631L684.493,65.219z"/>
	</g>
</g>
<g id="Layer_6">
	<circle fill="#22BDEF" cx="850" cy="100" r="50"/>
	<path fill="#0B4253" d="M863.333,72.167l-31.079,1.533l-31.93,31.93c2.722,24.28,22.824,43.296,47.58,44.318l26.266-26.267
		l-3.503-18.848l-5.742-9.799l14.143-14.142L863.333,72.167z"/>
	<g>
		<path fill="#FFFFFF" d="M861.608,81.972c-0.99-3.51-3.87-5.04-7.56-5.04c-6.93,0-9.81,6.3-9.72,14.58
			c5.04-3.51,8.819-4.59,14.85-4.59c14.759,0,21.419,11.429,21.419,20.52c0,15.479-11.069,22.408-25.379,22.408
			c-18.449,0-29.789-9.989-29.789-33.028c0-19.529,10.08-32.668,27.719-32.668c11.88,0,23.22,3.87,25.919,16.739L861.608,81.972z
			 M845.139,108.251c0,4.59,3.96,8.189,8.46,8.189c5.49,0,8.28-3.42,8.28-8.819c0-5.04-3.24-8.46-7.92-8.46
			C847.569,99.341,845.139,103.301,845.139,108.251z"/>
	</g>
</g>
<g id="Layer_7">
	<circle fill="#4557A6" cx="1000" cy="100" r="50"/>
	<path fill="#1C2135" d="M978.606,69.643l-28.562,28.561C950.024,98.801,950,99.397,950,100c0,25.036,18.401,45.773,42.417,49.428
		l16.338-16.338l-3.255-22.033l16-32.057L978.606,69.643z"/>
	<g>
		<path fill="#FFFFFF" d="M978.606,84.942V69.643h51.027v14.219c-11.429,9.27-20.249,27.81-20.879,49.228h-19.439
			c1.98-21.238,10.979-36.718,21.869-48.147H978.606z"/>
	</g>
</g>
</svg>
