<svg xmlns="http://www.w3.org/2000/svg" width="1100" height="200" viewBox="0 0 1100 200"><circle fill="#6ABD45" cx="100" cy="100" r="50"/><path fill="#253B1F" d="M100.475 61.826l-20.98 20.98h28.193"/><path fill="#253B1F" d="M50.522 107.188c3.09 21.448 19.79 38.485 41.065 42.093l23.107-23.106L103.75 88.5 81.306 76.405l-30.784 30.783z"/><path fill="#FFF" d="M114.694 126.174h-18.72V89.186H81.307v-12.78c9.9-.18 17.1-3.6 19.17-14.58h14.22v64.348z"/><circle fill="#F0E709" cx="250" cy="100" r="50"/><path fill="#535222" d="M243 110.832l24.833-25.167L265 74l-29.66-4.99-35.154 35.153C202.303 129.827 223.79 150 250 150c2.537 0 5.03-.192 7.465-.557L277.908 129 243 118v-7.168z"/><path fill="#FFF" d="M224.54 129c-.36-7.38 2.52-12.78 7.56-18 10.62-11.07 27.27-15.39 27.27-25.918 0-4.05-3.87-6.39-7.65-6.39-7.2 0-9.27 6.03-9.18 12.15h-16.83c.27-18.63 10.44-26.19 26.91-26.19 13.14 0 25.468 5.76 25.468 20.52 0 11.16-8.55 15.75-16.83 20.88-4.59 2.88-9.45 5.31-12.778 7.65h29.43V129h-53.37z"/><g><circle fill="#E78624" cx="400" cy="100" r="50"/><path fill="#442E18" d="M415.5 70l-29.568-.984-35.704 35.704c2.282 24.367 22.046 43.644 46.625 45.172l29.31-29.312-3.663-18.08-5.75-14.625L415.5 70z"/><path fill="#FFF" d="M395.79 104.45c-.09 2.88.72 5.22 2.25 6.84s3.87 2.52 6.75 2.52c5.49 0 8.37-3.688 8.37-7.38 0-7.29-7.2-7.02-11.7-7.02V88.343c4.41.36 11.16-.54 11.16-6.48 0-4.14-3.69-5.67-7.38-5.67-4.41 0-7.65 2.25-8.19 6.75h-16.92c.63-14.58 12.42-20.79 25.65-20.79 15.028 0 24.388 6.93 24.388 17.73 0 5.76-2.25 9.99-7.38 12.51 5.76 2.25 9.09 7.02 9.09 13.23 0 14.76-11.07 22.228-28.08 22.228-14.758 0-25.918-7.65-25.648-23.398h17.64z"/></g><g><circle fill="#D92A27" cx="550" cy="100" r="50"/><path fill="#401616" d="M501.724 113.022c5.384 20.005 22.862 35.04 44.115 36.792l25.146-25.147-4.652-36.333-12.808-27.114-51.802 51.802z"/><path fill="#401616" d="M578.905 111.438l-11.733 11.734L563 105.667l12.334 1.667"/><path fill="#FFF" d="M523.918 96.408l29.608-35.188h17.46v36.27h7.92v13.948h-7.92v13.23h-17.82v-13.23H523.92v-15.03zm14.13 1.08h15.12v-19.35l-15.12 19.35z"/></g><g><circle fill="#B94A9B" cx="700" cy="100" r="50"/><path fill="#401936" d="M684.493 65.22l-34.485 34.485c0 .1-.008.196-.008.295 0 15.03 6.642 28.5 17.14 37.667l7.96 5.685c6.526 3.757 13.977 6.087 21.932 6.554l27.747-27.747-1.612-13.492-12.14-14.008 14.144-14.142-40.68-15.3z"/><path fill="#FFF" d="M684.493 65.22h40.68v15.298h-27.54l-2.07 9.54c3.96-2.88 8.37-3.42 13.14-3.42 12.15 0 21.6 7.38 21.6 20.07 0 17.548-13.95 23.308-28.438 23.308-13.86 0-22.86-6.21-26.46-17.91l18.81-1.89c0 .18.18.45.18.63 1.08 3.33 4.68 5.13 8.1 5.13 5.49 0 9.09-3.688 9.09-8.368 0-5.22-2.52-9.18-8.19-9.18-2.79 0-6.118.72-7.56 3.51l-17.64-.63 6.298-36.09z"/></g><g><circle fill="#22BDEF" cx="850" cy="100" r="50"/><path fill="#0B4253" d="M863.333 72.167l-31.08 1.533-31.93 31.93c2.723 24.28 22.825 43.296 47.58 44.318l26.267-26.267-3.503-18.847-5.742-9.8 14.143-14.14-15.735-8.726z"/><path fill="#FFF" d="M861.608 81.972c-.99-3.51-3.87-5.04-7.56-5.04-6.93 0-9.81 6.3-9.72 14.58 5.04-3.51 8.82-4.59 14.85-4.59 14.76 0 21.42 11.43 21.42 20.52 0 15.48-11.07 22.408-25.38 22.408-18.45 0-29.79-9.99-29.79-33.028 0-19.53 10.08-32.668 27.72-32.668 11.88 0 23.22 3.87 25.92 16.74l-17.46 1.078zm-16.47 26.28c0 4.59 3.96 8.188 8.46 8.188 5.49 0 8.28-3.42 8.28-8.82 0-5.04-3.24-8.46-7.92-8.46-6.39.18-8.82 4.14-8.82 9.09z"/></g><g><circle fill="#4557A6" cx="1000" cy="100" r="50"/><path fill="#1C2135" d="M978.606 69.643l-28.562 28.56c-.02.598-.044 1.194-.044 1.797 0 25.036 18.4 45.773 42.417 49.428l16.338-16.338-3.255-22.033 16-32.057-42.894-9.357z"/><path fill="#FFF" d="M978.606 84.942v-15.3h51.027v14.22c-11.43 9.27-20.25 27.81-20.88 49.228h-19.438c1.98-21.238 10.98-36.718 21.87-48.147h-32.58z"/></g></svg>