<?xml version="1.0" encoding="utf-8"?>
<!-- Generator: Adobe Illustrator 16.0.0, SVG Export Plug-In . SVG Version: 6.00 Build 0)  -->
<!DOCTYPE svg PUBLIC "-//W3C//DTD SVG 1.1//EN" "http://www.w3.org/Graphics/SVG/1.1/DTD/svg11.dtd">
<svg version="1.1" id="Layer_1" xmlns="http://www.w3.org/2000/svg" xmlns:xlink="http://www.w3.org/1999/xlink" x="0px" y="0px"
	 width="700px" height="700px" viewBox="0 0 700 700" enable-background="new 0 0 700 700" xml:space="preserve">
<polygon points="518.11,358.11 560.221,316 522.437,301.437 550.021,273.852 535.162,256.162 558.121,233.203 470.074,208.004 
	457.88,220.199 419.822,208.004 380.525,247.301 338.976,208.004 305.205,241.776 266.525,208.004 229.023,256.603 213.28,262.002 
	227.673,245.203 138.771,217.891 0,356.662 0,700 295.065,700 542.818,451 515.147,421 515.147,389 "/>
<g>
	<path fill="#FFFFFF" d="M229.023,316.3h-22.799l-1.35-10.649c-5.85,6.9-15.599,13.2-32.548,13.2
		c-27.599,0-52.348-17.85-52.348-55.498c0-34.499,21.599-58.198,56.548-58.198c25.949,0,46.798,13.5,51.148,40.049h-33.599
		c-2.55-8.85-9-13.65-18.149-13.65c-13.949,0-20.549,12.6-20.549,31.649c0,15.299,4.8,29.249,22.649,29.249
		c7.2,0,16.349-4.95,18.149-12.45h-15.6v-23.399h48.448V316.3z"/>
	<path fill="#FFFFFF" d="M227.827,316l38.698-107.996h35.999L341.222,316h-35.249l-4.2-14.25h-35.249l-4.05,14.25H227.827z
		 M284.225,240.553l-10.95,38.698h22.349L284.225,240.553z"/>
	<path fill="#FFFFFF" d="M338.976,316V208.004h42.749l19.049,67.347l19.049-67.347h42.749V316h-31.799v-32.999l0.45-16.799l1.8-19.5
		h-0.3L413.073,316h-24.599l-19.649-69.297h-0.3l1.5,15.899l0.75,16.799V316H338.976z"/>
	<path fill="#FFFFFF" d="M470.074,316V208.004h88.047v25.199h-52.648v15.45h44.549v25.199h-44.549v16.949h54.748V316H470.074z"/>
	<path fill="#FFFFFF" d="M244.922,396.402c0,36.748-24.749,57.447-56.698,57.447c-33.898,0-56.548-20.999-56.548-57.748
		c0-33.898,22.949-55.947,56.548-55.947C226.772,340.154,244.922,367.903,244.922,396.402z M167.075,396.402
		c0,13.799,4.2,31.049,21.149,31.049c15.299,0,21.299-13.199,21.299-31.049c0-14.699-6-30.299-21.599-29.85
		C171.875,366.553,167.075,382.753,167.075,396.402z"/>
	<path fill="#FFFFFF" d="M233.525,343.004h35.699l18.899,71.847l19.649-71.847h35.699L305.973,451h-35.549L233.525,343.004z"/>
	<path fill="#FFFFFF" d="M346.175,451V343.004h88.046v25.199h-52.647v15.449h44.548v25.199h-44.548v16.949h54.748V451H346.175z"/>
	<path fill="#FFFFFF" d="M475.472,413.352V451h-35.399V343.004h50.998c35.999,0,47.849,9.75,47.849,30.749
		c0,12.45-5.55,22.949-18.149,26.399c11.4,4.199,18.299,6.899,18.299,28.648c0,14.1-0.449,18.899,3.75,18.899v3.3h-35.848
		c-0.9-2.4-1.801-9.3-1.801-18.899c0-14.099-2.399-18.749-18.898-18.749H475.472z M475.472,389.652h13.949
		c10.95,0,16.8-2.699,16.8-10.199c0-7.65-6-11.25-14.25-11.25h-16.499V389.652z"/>
</g>
</svg>
